# xmcd
#
# Track frame offsets:
#	150
#	15870
#	36862
#	54267
#	74915
#	98302
#	117522
#	139315
#	158657
#	172142
#	196062
#	217372
#
# Disc length: 3171 seconds
#
# Revision: 1
# Processed by: cddbd v1.4PL0 Copyright (c) Steve Scherf et al.
# Submitted via: audiograbber 1.82.02
#
DISCID=a90c610c
DTITLE=Janet Martin - Cloud Cover
DYEAR=1997
DGENRE=Country
TTITLE0=One Heart
TTITLE1=Between Love and Hate
TTITLE2=If It's Love
TTITLE3=Cloud Cover
TTITLE4=Heartbreak Memory
TTITLE5=Magic Touch
TTITLE6=Makin' History
TTITLE7=Melody Blue
TTITLE8=Cajun Lane
TTITLE9=Those Who Love The Least
TTITLE10=Baby's Down The Line
TTITLE11=Crossroads Of Love
EXTD=
EXTT0=
EXTT1=
EXTT2=
EXTT3=
EXTT4=
EXTT5=
EXTT6=
EXTT7=
EXTT8=
EXTT9=
EXTT10=
EXTT11=
PLAYORDER=
